<?xml version="1.0" encoding="utf-8"?>
<!-- Generator: Adobe Illustrator 15.0.2, SVG Export Plug-In . SVG Version: 6.00 Build 0)  -->
<!DOCTYPE svg PUBLIC "-//W3C//DTD SVG 1.1//EN" "http://www.w3.org/Graphics/SVG/1.1/DTD/svg11.dtd">
<svg version="1.1" id="Layer_1" xmlns="http://www.w3.org/2000/svg" xmlns:xlink="http://www.w3.org/1999/xlink" x="0px" y="0px"
	 width="768.482px" height="105.328px" viewBox="0 0 768.482 105.328" enable-background="new 0 0 768.482 105.328"
	 xml:space="preserve">
<path fill="#80C100" d="M403.425,12.639V9.332h-2.307c-0.271-1.247-0.793-2.389-1.523-3.383l1.635-1.625l-2.346-2.338l-1.689,1.689
	c-1.012-0.648-2.164-1.095-3.398-1.296V0h-3.312v2.457c-1.203,0.263-2.318,0.762-3.289,1.452l-1.717-1.712l-2.336,2.345l1.752,1.747
	c-0.658,0.992-1.115,2.123-1.332,3.344h-2.402v3.307h2.423c0.242,1.229,0.732,2.363,1.42,3.358l-1.65,1.648l2.34,2.337l1.656-1.656
	c1.018,0.687,2.186,1.165,3.436,1.387v2.257h3.305v-2.278c1.27-0.25,2.434-0.768,3.447-1.485l1.562,1.565l2.344-2.34l-1.604-1.601
	c0.68-1.034,1.148-2.217,1.352-3.493H403.425z"/>
<path fill="#0093FF" d="M39.767,75.834c0,5.225-1.363,9.09-4.09,11.59c-3.181,2.879-8.561,4.314-16.135,4.314
	c-7.196,0-12.461-1.699-15.793-5.111C1.25,84.127,0,81.023,0,77.311V59.133h15.793v18.389c0,0.842,0.332,1.506,0.998,2
	c0.666,0.496,1.47,0.744,2.412,0.744c1.098,0,1.921-0.229,2.47-0.684c0.548-0.459,0.824-1.143,0.824-2.057v-9.473
	c0-2.203-0.496-3.955-1.484-5.246c-2.667-2.736-5.522-5.744-8.568-9.014c-5.024-5.303-7.84-8.332-8.45-9.092
	C1.331,41.294,0,38.112,0,35.157v-8.976c0-5.073,1.438-8.824,4.317-11.249c3.333-2.8,8.635-4.205,15.907-4.205
	c6.287,0,10.983,1.405,14.088,4.205c2.652,2.425,3.978,5.722,3.978,9.885v13.746H22.497V23.81c0-0.762-0.258-1.354-0.771-1.772
	c-0.513-0.416-1.165-0.631-1.954-0.631c-0.949,0-1.658,0.192-2.132,0.574c-0.474,0.382-0.711,0.992-0.711,1.829v7.434
	c0,2.596,1.141,5.109,3.426,7.55c3.197,3.257,6.204,6.325,9.022,9.201c3.652,3.789,6.012,6.441,7.08,7.957
	c2.206,3.105,3.31,6.359,3.31,9.77V75.834z"/>
<path fill="#0093FF" d="M80.444,78.676c0,4.773-1.895,8.254-5.68,10.451c-3.031,1.742-7.348,2.611-12.953,2.611
	c-5.608,0-9.925-0.941-12.952-2.838c-3.637-2.273-5.455-5.871-5.455-10.793V39.586c0-4.845,1.779-8.408,5.339-10.681
	c3.105-1.968,7.459-2.952,13.067-2.952c5.529,0,9.845,0.873,12.953,2.611c3.786,2.123,5.68,5.61,5.68,10.456v24.539H59.197v14.906
	c0,1.055,0.227,1.863,0.681,2.43c0.456,0.562,1.137,0.844,2.046,0.844c0.909,0,1.591-0.281,2.045-0.842
	c0.453-0.564,0.681-1.371,0.681-2.428V65.607h15.793V78.676z M64.65,53.793V39.114c0-1.054-0.228-1.844-0.681-2.371
	c-0.455-0.527-1.137-0.79-2.045-0.79c-0.758,0-1.402,0.263-1.933,0.79c-0.529,0.527-0.795,1.317-0.795,2.371v14.679H64.65z"/>
<path fill="#0093FF" d="M121.233,90.832h-13.975v-2.5c-0.758,1.439-1.914,2.369-3.465,2.785c-1.555,0.416-3.769,0.621-6.647,0.621
	c-4.697,0-8.031-0.83-9.999-2.496c-1.971-1.664-2.955-4.203-2.955-7.615V68.676c0-5.15,3.541-9.434,10.624-12.838
	c7.082-3.412,10.624-5.795,10.624-7.159v-9.544c0-1.059-0.224-1.856-0.667-2.387c-0.446-0.529-1.113-0.795-2.002-0.795
	c-0.742,0-1.374,0.266-1.892,0.795c-0.519,0.53-0.778,1.328-0.778,2.387v12.727H84.761V39.021c0-4.774,1.931-8.255,5.793-10.456
	c3.105-1.739,7.459-2.611,13.067-2.611c5.605,0,9.809,0.948,12.611,2.841c3.333,2.197,5,5.793,5,10.791V90.832z M105.439,78.787
	V62.201c-2.123,0.529-3.561,1.172-4.316,1.932c-0.759,0.756-1.138,1.742-1.138,2.951v11.703c0,0.986,0.245,1.727,0.738,2.215
	c0.492,0.496,1.193,0.738,2.103,0.738c0.756,0,1.381-0.242,1.875-0.738C105.193,80.514,105.439,79.773,105.439,78.787z"/>
<path fill="#0093FF" d="M162.25,53.108h-15.793V39.042c0-1.98-0.908-2.978-2.728-2.978c-0.908,0-1.59,0.229-2.043,0.687
	c-0.455,0.454-0.684,1.174-0.684,2.159v51.922h-15.793V26.406h15.793v2.133c0.91-0.75,2.217-1.367,3.921-1.855
	c1.704-0.485,3.652-0.73,5.851-0.73c3.333,0,6.079,0.891,8.238,2.667c2.16,1.783,3.238,3.963,3.238,6.535V53.108z"/>
<path fill="#0093FF" d="M202.47,78.676c0,4.846-1.818,8.332-5.453,10.451c-2.955,1.742-7.235,2.611-12.84,2.611
	c-5.681,0-10.075-0.941-13.18-2.838c-3.711-2.273-5.568-5.871-5.568-10.793V39.586c0-4.845,1.856-8.408,5.568-10.681
	c3.183-1.968,7.573-2.952,13.18-2.952c5.455,0,9.696,0.873,12.727,2.611c3.71,2.123,5.566,5.61,5.566,10.456v15.906h-15.793V39.134
	c0-1.059-0.227-1.856-0.681-2.387c-0.454-0.529-1.136-0.795-2.046-0.795c-0.757,0-1.401,0.263-1.932,0.795
	c-0.53,0.527-0.796,1.323-0.796,2.379v39.328c0,1.057,0.229,1.869,0.683,2.438c0.453,0.566,1.137,0.848,2.044,0.848
	c0.91,0,1.592-0.281,2.046-0.844c0.455-0.566,0.681-1.375,0.681-2.432V62.992h15.793V78.676z"/>
<path fill="#0093FF" d="M242.918,90.832h-15.793V38.905c0-1.969-0.909-2.952-2.727-2.952c-0.909,0-1.591,0.227-2.045,0.682
	c-0.455,0.454-0.682,1.174-0.682,2.159v52.038h-15.792V11.295h15.792v17.042c0.983-0.832,2.29-1.436,3.919-1.815
	c1.629-0.377,3.58-0.568,5.854-0.568c3.331,0,6.077,0.873,8.237,2.611c2.158,1.746,3.237,3.864,3.237,6.364V90.832z"/>
<path fill="#0093FF" d="M301.092,90.832h-34.2V11.295h33.973v10.112h-16.59v21.478h14.999v9.769h-14.999v28.065h16.817V90.832z"/>
<path fill="#0093FF" d="M340.973,90.832h-15.795V39.026c0-1.974-0.909-2.962-2.728-2.962c-0.908,0-1.591,0.24-2.045,0.713
	c-0.455,0.473-0.681,1.218-0.681,2.245v51.811h-15.793V26.406h15.793v2.159c0.909-0.754,2.214-1.379,3.921-1.873
	c1.703-0.491,3.652-0.738,5.851-0.738c3.333,0,6.079,0.891,8.238,2.667c2.159,1.783,3.239,3.963,3.239,6.535V90.832z"/>
<path fill="#0093FF" d="M381.306,89.924c0,4.469-0.473,7.498-1.42,9.09c-0.948,1.59-2.519,2.912-4.714,3.975
	c-1.289,0.607-2.938,1.006-4.944,1.193c-2.007,0.189-4.45,0.285-7.328,0.285h-15.795v-9.43h12.84c2.653,0,4.355-0.752,5.112-2.238
	c0.305-0.6,0.455-1.758,0.455-3.473c-0.981,0.766-2.289,1.361-3.919,1.783c-1.629,0.422-3.578,0.629-5.85,0.629
	c-3.337,0-6.081-0.869-8.24-2.611c-2.156-1.74-3.235-3.863-3.235-6.361V36.521c0-2.877,0.832-5.225,2.497-7.044
	c2.196-2.348,5.569-3.522,10.115-3.522c2.5,0,4.505,0.379,6.021,1.137c1.289,0.906,2.195,1.475,2.728,1.705l2.043-2.389h13.635
	V89.924z M365.512,79.25V38.899c0-0.981-0.228-1.717-0.68-2.211c-0.455-0.488-1.137-0.736-2.045-0.736
	c-1.816,0-2.728,0.983-2.728,2.947v40.235c0,1.965,0.911,2.947,2.728,2.947c0.909,0,1.591-0.242,2.045-0.736
	C365.284,80.857,365.512,80.156,365.512,79.25z"/>
<path fill="#0093FF" d="M400.62,90.832h-15.793V26.406h15.793V90.832z"/>
<path fill="#0093FF" d="M440.727,90.832h-15.793V39.026c0-1.974-0.908-2.962-2.727-2.962c-0.908,0-1.592,0.24-2.045,0.713
	c-0.455,0.473-0.682,1.218-0.682,2.245v51.811h-15.793V26.406h15.793v2.159c0.908-0.754,2.215-1.379,3.92-1.873
	c1.705-0.491,3.652-0.738,5.85-0.738c3.336,0,6.078,0.891,8.238,2.667c2.158,1.783,3.238,3.963,3.238,6.535V90.832z"/>
<path fill="#0093FF" d="M481.063,78.676c0,4.773-1.896,8.254-5.682,10.451c-3.031,1.742-7.348,2.611-12.951,2.611
	c-5.611,0-9.924-0.941-12.953-2.838c-3.639-2.273-5.453-5.871-5.453-10.793V39.586c0-4.845,1.777-8.408,5.336-10.681
	c3.105-1.968,7.459-2.952,13.07-2.952c5.527,0,9.844,0.873,12.951,2.611c3.785,2.123,5.682,5.61,5.682,10.456v24.539h-21.248v14.906
	c0,1.055,0.227,1.863,0.682,2.43c0.455,0.562,1.137,0.844,2.047,0.844c0.908,0,1.592-0.281,2.045-0.842
	c0.453-0.564,0.68-1.371,0.68-2.428V65.607h15.795V78.676z M465.268,53.793V39.114c0-1.054-0.227-1.844-0.68-2.371
	c-0.453-0.527-1.137-0.79-2.045-0.79c-0.76,0-1.406,0.263-1.934,0.79c-0.531,0.527-0.795,1.317-0.795,2.371v14.679H465.268z"/>
<path fill="#80C100" d="M537.874,90.832h-32.955V11.295h17.502v69.423h15.453V90.832z"/>
<path fill="#80C100" d="M577.755,90.832h-13.979v-2.5c-0.758,1.439-1.912,2.369-3.463,2.785c-1.555,0.416-3.77,0.621-6.648,0.621
	c-4.697,0-8.033-0.83-10-2.496c-1.969-1.664-2.953-4.203-2.953-7.615V68.676c0-5.15,3.541-9.434,10.623-12.838
	c7.084-3.412,10.625-5.795,10.625-7.159v-9.544c0-1.059-0.225-1.856-0.668-2.387c-0.447-0.529-1.111-0.795-2.004-0.795
	c-0.74,0-1.371,0.266-1.891,0.795c-0.52,0.53-0.777,1.328-0.777,2.387v12.727h-15.34V39.021c0-4.774,1.93-8.255,5.793-10.456
	c3.105-1.739,7.461-2.611,13.07-2.611c5.604,0,9.807,0.948,12.609,2.841c3.332,2.197,5.002,5.793,5.002,10.791V90.832z
	 M561.96,78.787V62.201c-2.121,0.529-3.562,1.172-4.316,1.932c-0.76,0.756-1.137,1.742-1.137,2.951v11.703
	c0,0.986,0.244,1.727,0.738,2.215c0.49,0.496,1.193,0.738,2.104,0.738c0.754,0,1.379-0.242,1.873-0.738
	C561.71,80.514,561.96,79.773,561.96,78.787z"/>
<path fill="#80C100" d="M618.659,90.832h-15.795V39.026c0-1.974-0.91-2.962-2.729-2.962c-0.906,0-1.592,0.24-2.045,0.713
	c-0.453,0.473-0.68,1.218-0.68,2.245v51.811h-15.795V26.406h15.795v2.159c0.91-0.754,2.213-1.379,3.92-1.873
	c1.703-0.491,3.652-0.738,5.85-0.738c3.334,0,6.08,0.891,8.238,2.667c2.158,1.783,3.24,3.963,3.24,6.535V90.832z"/>
<path fill="#80C100" d="M658.989,90.832h-11.93l-1.363-2.158c-1.516,1.135-2.424,1.779-2.727,1.932
	c-1.592,0.754-3.752,1.133-6.479,1.133c-4.619,0-8.199-1.059-10.734-3.178c-2.541-2.121-3.807-4.582-3.807-7.385V34.93
	c0-2.5,1.057-4.618,3.182-6.364c2.117-1.739,4.887-2.611,8.293-2.611c2.121,0,4.053,0.227,5.793,0.682
	c1.744,0.455,3.07,1.02,3.979,1.702V11.295h15.793V90.832z M643.196,78.787V38.794c0-0.91-0.248-1.609-0.738-2.105
	c-0.494-0.488-1.158-0.736-1.99-0.736c-1.816,0-2.727,0.983-2.727,2.952v39.882c0,0.986,0.227,1.727,0.682,2.215
	c0.455,0.496,1.137,0.738,2.045,0.738c0.91,0,1.592-0.242,2.047-0.738C642.969,80.514,643.196,79.773,643.196,78.787z"/>
</svg>
