<?xml version="1.0" encoding="utf-8"?>
<!-- Generator: Adobe Illustrator 16.0.0, SVG Export Plug-In . SVG Version: 6.00 Build 0)  -->
<!DOCTYPE svg PUBLIC "-//W3C//DTD SVG 1.1//EN" "http://www.w3.org/Graphics/SVG/1.1/DTD/svg11.dtd">
<svg version="1.1" id="Layer_1" xmlns="http://www.w3.org/2000/svg" xmlns:xlink="http://www.w3.org/1999/xlink" x="0px" y="0px"
	 width="350px" height="29px" viewBox="0 0 350 29" enable-background="new 0 0 350 29" xml:space="preserve">
<g>
	<g>
		<g>
			<path fill="#444444" d="M20.362,1.062v4.451h-7.521V26.2H7.555V5.513H0V1.062H20.362z"/>
			<path fill="#444444" d="M22.699,26.2V1.062h5.218v9.584h9.772V1.062h5.219V26.2h-5.219V14.979h-9.772V26.2H22.699z"/>
			<path fill="#444444" d="M65.846,5.513H52.544v5.339h12.21v4.366h-12.21v6.464H66.46V26.2h-19.05V1.062h18.436V5.513z"/>
			<path fill="#444444" d="M78.466,3.689c2.025-2.069,4.601-3.104,7.728-3.104c4.184,0,7.243,1.386,9.178,4.161
				c1.069,1.558,1.642,3.122,1.721,4.689H91.84c-0.334-1.205-0.764-2.114-1.287-2.729c-0.936-1.092-2.322-1.637-4.16-1.637
				c-1.872,0-3.348,0.769-4.427,2.31c-1.081,1.541-1.621,3.721-1.621,6.541s0.569,4.932,1.71,6.336
				c1.14,1.404,2.588,2.105,4.346,2.105c1.801,0,3.175-0.603,4.12-1.808c0.522-0.647,0.957-1.619,1.301-2.917h5.219
				c-0.45,2.741-1.6,4.97-3.45,6.686c-1.85,1.717-4.22,2.575-7.111,2.575c-3.577,0-6.389-1.159-8.436-3.479
				c-2.047-2.331-3.07-5.525-3.07-9.585C74.974,9.448,76.138,6.065,78.466,3.689z"/>
			<path fill="#444444" d="M139.622,1.062h5.507l9.979,17.529V1.062h4.895V26.2h-5.252L144.516,8.364V26.2h-4.895V1.062z"/>
			<path fill="#444444" d="M178.94,1.062h5.457L175.828,26.2h-4.963l-8.501-25.138h5.61l5.457,19.084L178.94,1.062z"/>
			<path fill="#444444" d="M204.718,5.513h-13.302v5.339h12.21v4.366h-12.21v6.464h13.916V26.2h-19.05V1.062h18.436V5.513z"/>
			<path fill="#444444" d="M224.137,1.711c0.926,0.399,1.71,0.983,2.353,1.757c0.532,0.636,0.953,1.341,1.264,2.114
				c0.312,0.773,0.466,1.655,0.466,2.644c0,1.193-0.301,2.366-0.904,3.521c-0.603,1.153-1.598,1.969-2.983,2.446
				c1.159,0.467,1.98,1.129,2.464,1.986c0.483,0.859,0.726,2.17,0.726,3.932V21.8c0,1.149,0.045,1.929,0.138,2.337
				c0.138,0.648,0.462,1.126,0.971,1.433V26.2h-5.8c-0.159-0.556-0.271-1.006-0.341-1.347c-0.137-0.705-0.21-1.427-0.221-2.166
				l-0.034-2.337c-0.022-1.604-0.298-2.671-0.831-3.206c-0.532-0.534-1.529-0.802-2.993-0.802h-5.129V26.2h-5.134V1.062h12.023
				C221.889,1.097,223.21,1.313,224.137,1.711z M213.281,5.429v6.753h5.653c1.122,0,1.963-0.135,2.525-0.408
				c0.993-0.479,1.49-1.421,1.49-2.832c0-1.524-0.48-2.547-1.441-3.069c-0.54-0.296-1.351-0.444-2.43-0.444H213.281z"/>
			<path fill="#444444" d="M235.639,18.44c0.163,1.149,0.481,2.007,0.957,2.576c0.871,1.034,2.362,1.551,4.476,1.551
				c1.265,0,2.293-0.137,3.082-0.408c1.497-0.522,2.247-1.496,2.247-2.917c0-0.83-0.368-1.473-1.101-1.928
				c-0.733-0.441-1.897-0.835-3.49-1.176l-2.722-0.598c-2.675-0.59-4.512-1.232-5.514-1.927c-1.692-1.159-2.539-2.974-2.539-5.44
				c0-2.251,0.828-4.12,2.484-5.611c1.658-1.489,4.092-2.234,7.304-2.234c2.681,0,4.969,0.702,6.861,2.107
				c1.894,1.403,2.887,3.441,2.979,6.113h-5.048c-0.093-1.513-0.769-2.586-2.028-3.223c-0.84-0.421-1.882-0.631-3.13-0.631
				c-1.386,0-2.493,0.272-3.321,0.817c-0.827,0.547-1.241,1.309-1.241,2.287c0,0.897,0.408,1.567,1.225,2.013
				c0.523,0.296,1.637,0.643,3.34,1.04l4.41,1.04c1.934,0.456,3.384,1.063,4.349,1.825c1.497,1.183,2.246,2.894,2.246,5.134
				c0,2.296-0.887,4.203-2.662,5.722c-1.776,1.517-4.283,2.276-7.524,2.276c-3.31,0-5.912-0.748-7.809-2.243
				c-1.896-1.494-2.844-3.549-2.844-6.165H235.639z"/>
			<path fill="#444444" d="M260.941,1.062h5.942l8.893,25.138h-5.695l-1.659-5.167h-9.256l-1.704,5.167h-5.495L260.941,1.062z
				 M260.594,16.702h6.438l-3.176-9.893L260.594,16.702z"/>
			<path fill="#444444" d="M292.558,1.062v4.451h-7.521V26.2h-5.286V5.513h-7.555V1.062H292.558z"/>
			<path fill="#444444" d="M300.421,26.2h-5.219V1.062h5.219V26.2z"/>
			<path fill="#444444" d="M323.991,23.967c-1.899,1.955-4.645,2.933-8.237,2.933s-6.339-0.978-8.236-2.933
				c-2.547-2.399-3.82-5.856-3.82-10.369c0-4.605,1.273-8.061,3.82-10.369c1.897-1.955,4.644-2.933,8.236-2.933
				s6.338,0.978,8.237,2.933c2.535,2.309,3.803,5.764,3.803,10.369C327.793,18.11,326.526,21.567,323.991,23.967z M320.708,20.146
				c1.223-1.534,1.834-3.718,1.834-6.549c0-2.819-0.611-5-1.834-6.541c-1.222-1.541-2.874-2.31-4.954-2.31
				c-2.081,0-3.74,0.766-4.979,2.302c-1.24,1.535-1.859,3.719-1.859,6.549c0,2.831,0.619,5.015,1.859,6.549
				c1.239,1.535,2.898,2.303,4.979,2.303C317.833,22.449,319.486,21.682,320.708,20.146z"/>
			<path fill="#444444" d="M329.62,1.062h5.506l9.979,17.529V1.062H350V26.2h-5.251L334.514,8.364V26.2h-4.895V1.062z"/>
		</g>
	</g>
	<path fill="#D8352A" d="M122.733,0h-9.435c-7.319,0-13.252,5.933-13.252,13.252v0.541c0,2.648,0.786,5.109,2.123,7.179
		l-7.052,6.615l10.293-3.163c2.205,1.64,4.929,2.622,7.888,2.622h9.435c7.319,0,13.253-5.934,13.253-13.253v-0.541
		C135.986,5.933,130.052,0,122.733,0z M129.945,15.025c0,3.934-3.188,7.122-7.122,7.122h-9.615c-3.933,0-7.122-3.188-7.122-7.122
		v-3.004c0-3.935,3.189-7.122,7.122-7.122h9.615c3.935,0,7.122,3.188,7.122,7.122V15.025z"/>
</g>
</svg>
