<?xml version="1.0" encoding="utf-8"?>
<!-- Generator: Adobe Illustrator 17.0.0, SVG Export Plug-In . SVG Version: 6.00 Build 0)  -->
<!DOCTYPE svg PUBLIC "-//W3C//DTD SVG 1.1//EN" "http://www.w3.org/Graphics/SVG/1.1/DTD/svg11.dtd">
<svg version="1.1" id="Layer_1" xmlns="http://www.w3.org/2000/svg" xmlns:xlink="http://www.w3.org/1999/xlink" x="0px" y="0px"
	 width="188.82px" height="34.052px" viewBox="0 0 188.82 34.052" enable-background="new 0 0 188.82 34.052" xml:space="preserve">
<g id="Layer_2" display="none">
</g>
<g id="Layer_1_1_">
	<path fill="#959595" d="M132.156,8.691c-4.596,0-8.321,3.726-8.321,8.321s3.726,8.321,8.321,8.321s8.321-3.726,8.321-8.321
		S136.752,8.691,132.156,8.691z M136.3,17.573l-6.175,3.737c-0.51,0.312-0.928,0.06-0.928-0.559v-7.472
		c0-0.623,0.417-0.873,0.928-0.568l6.175,3.738C136.81,16.762,136.81,17.264,136.3,17.573z"/>
	<path fill="#959595" d="M7.131,4.525c-2.038,0-3.34,1.042-4.264,2.346V4.785H0v16.298h2.867V15.35
		c0.876,1.161,2.18,2.203,4.264,2.203c2.96,0,5.804-2.345,5.804-6.491v-0.047C12.935,6.846,10.068,4.525,7.131,4.525z
		 M10.021,11.062c0,2.464-1.61,4.004-3.576,4.004c-1.943,0-3.648-1.611-3.648-4.004v-0.047c0-2.393,1.705-4.003,3.648-4.003
		c1.942,0,3.576,1.588,3.576,4.003V11.062z M60.611,16.281c0.931-0.637,1.887-1.226,2.867-1.771V0h-2.867V16.281z M69.608,11.75
		c1.378-0.49,2.786-0.911,4.215-1.272c-0.503-0.231-1.039-0.415-1.557-0.576c-1.469-0.474-2.82-0.853-2.82-1.777V8.078
		c0-0.711,0.64-1.232,1.754-1.232c1.042,0,2.321,0.451,3.529,1.185l1.136-2.038c-1.326-0.876-3.032-1.421-4.595-1.421
		c-2.488,0-4.453,1.445-4.453,3.814v0.047C66.818,10.346,68.136,11.212,69.608,11.75z M95.289,6.656
		c-0.971-1.161-2.274-2.131-4.382-2.131c-2.463,0-4.815,1.561-5.488,4.271c1.03-0.054,2.064-0.084,3.098-0.095
		c0.591-1.095,1.765-1.759,3.147-1.759c1.451,0,2.735,0.745,3.326,1.937c1.06,0.067,2.116,0.153,3.165,0.254V4.785h-2.867
		L95.289,6.656L95.289,6.656z M108.531,4.525c-1.943,0-3.104,1.018-3.91,2.18V0h-2.867v9.538c0.968,0.126,1.927,0.263,2.877,0.411
		c0.109-1.77,1.234-2.819,2.808-2.819c1.705,0,2.678,1.114,2.678,3.056v0.743c0.972,0.196,1.928,0.398,2.866,0.607V9.31
		C112.983,6.42,111.35,4.525,108.531,4.525z M79.135,2.867h3.08V0.142h-3.08V2.867z M119.901,4.785V1.35h-2.867v3.435h-1.587v2.464
		h1.587v5.252c0.983,0.249,1.94,0.501,2.867,0.757V7.249h3.364V4.785H119.901z M79.252,9.398c0.95-0.14,1.907-0.256,2.867-0.353
		v-4.26h-2.867V9.398z M30.89,11.845c0,1.943-1.161,3.079-2.819,3.079c-1.707,0-2.678-1.09-2.678-3.032V4.785h-2.867v7.959
		c0,2.914,1.635,4.809,4.453,4.809c1.942,0,3.103-1.019,3.909-2.203v1.943h2.89V4.785h-2.89V11.845z M16.06,17.294h2.867V0H16.06
		V17.294z M40.221,7.604v-2.82h-2.867v12.508h2.867v-4.761c0-3.317,1.753-4.951,4.264-4.951h0.167V4.549
		C42.448,4.454,41.003,5.733,40.221,7.604z M51.516,4.619c-1.989,0-3.339,0.403-4.713,1.019l0.758,2.25
		c1.137-0.474,2.179-0.782,3.578-0.782c2.013,0,3.102,0.948,3.102,2.724v0.308c-0.972-0.308-1.966-0.521-3.364-0.521
		c-3.055,0-5.165,1.327-5.165,4.027v0.047c0,2.511,2.085,3.861,4.43,3.861c1.919,0,3.222-0.806,4.075-1.824v1.564h2.795V9.878
		c0-1.635-0.426-2.961-1.35-3.86C54.785,5.117,53.388,4.619,51.516,4.619z M54.288,12.792c0,1.587-1.444,2.677-3.34,2.677
		c-1.373,0-2.439-0.687-2.439-1.895v-0.047c0-1.303,1.09-2.085,2.937-2.085c1.137,0,2.108,0.213,2.842,0.497V12.792z"/>
	<g>
		<path fill="#959595" d="M79.175,17.747h2.867v-6.984c-1.001,0.13-1.952,0.283-2.867,0.452V17.747z M95.26,10.831v0.047
			c0,2.037-1.683,3.435-3.674,3.435c-1.966,0-3.552-1.398-3.552-3.435v-0.047c0-0.191,0.017-0.374,0.044-0.554
			c-1.007,0.036-1.977,0.092-2.915,0.165c-0.008,0.137-0.019,0.271-0.019,0.411v0.048c0,3.672,2.747,5.851,5.685,5.851
			c2.062,0,3.364-0.948,4.407-2.297v0.971c0,2.511-1.398,3.838-3.956,3.838c-1.706,0-3.102-0.498-4.453-1.327l-1.065,2.155
			c1.611,0.972,3.529,1.492,5.589,1.492c2.251,0,4.005-0.544,5.142-1.682c1.042-1.042,1.587-2.605,1.587-4.714v-4.652
			c-0.975-0.079-1.931-0.145-2.857-0.193C95.245,10.502,95.26,10.663,95.26,10.831z M72.219,13.073
			c0.725,0.289,1.225,0.644,1.225,1.24v0.047c0,0.829-0.711,1.35-1.943,1.35c-0.997,0-2.094-0.321-3.18-0.943
			c-0.784,0.405-1.484,0.812-2.108,1.21l-0.089,0.135c1.565,1.232,3.531,1.871,5.308,1.871c2.605,0,4.643-1.303,4.643-3.932v-0.047
			c0-0.81-0.271-1.434-0.698-1.931C74.24,12.383,73.191,12.72,72.219,13.073z M122.514,15.224c-0.368,0.116-0.745,0.178-1.152,0.178
			c-0.814,0-1.34-0.322-1.491-1.08c-0.988-0.25-1.957-0.482-2.915-0.706v0.673c0,2.748,1.492,3.672,3.602,3.672
			c0.674,0,1.231-0.092,1.727-0.257c-0.004-0.11-0.009-0.22-0.009-0.331C122.276,16.634,122.36,15.917,122.514,15.224z
			 M101.679,17.747h2.866v-6.489c-0.978-0.138-1.93-0.257-2.866-0.365V17.747z M110.041,17.747h2.866V12.72
			c-0.975-0.201-1.927-0.384-2.866-0.558V17.747z"/>
	</g>
</g>
</svg>
