<?xml version="1.0" encoding="utf-8"?>
<!-- Generator: Adobe Illustrator 17.0.0, SVG Export Plug-In . SVG Version: 6.00 Build 0)  -->
<!DOCTYPE svg PUBLIC "-//W3C//DTD SVG 1.1//EN" "http://www.w3.org/Graphics/SVG/1.1/DTD/svg11.dtd">
<svg version="1.1" id="Layer_1" xmlns="http://www.w3.org/2000/svg" xmlns:xlink="http://www.w3.org/1999/xlink" x="0px" y="0px"
	 width="188.82px" height="34.052px" viewBox="0 0 188.82 34.052" enable-background="new 0 0 188.82 34.052" xml:space="preserve">
<g id="Layer_2" display="none">
</g>
<g id="Layer_1_1_">
	<circle fill="#F26522" cx="177.636" cy="22.867" r="11.185"/>
	<path fill="#FFFFFF" d="M174.906,28.643l8.3-5.023c0.685-0.415,0.685-1.089,0-1.509l-8.3-5.025
		c-0.687-0.411-1.247-0.074-1.247,0.763v10.043C173.659,28.724,174.22,29.063,174.906,28.643z"/>
	<path fill="#58595B" d="M9.585,6.082c-2.739,0-4.49,1.401-5.731,3.153V6.432H0v21.907h3.854v-7.706
		c1.178,1.56,2.93,2.961,5.731,2.961c3.979,0,7.801-3.152,7.801-8.725v-0.063C17.386,9.202,13.533,6.082,9.585,6.082z
		 M13.469,14.869c0,3.312-2.164,5.382-4.807,5.382c-2.611,0-4.903-2.166-4.903-5.382v-0.063c0-3.216,2.292-5.381,4.903-5.381
		c2.61,0,4.807,2.134,4.807,5.381V14.869z M81.47,21.884c1.251-0.856,2.537-1.648,3.853-2.381V0H81.47V21.884z M93.562,15.794
		c1.852-0.658,3.745-1.224,5.666-1.71c-0.676-0.31-1.396-0.558-2.093-0.774c-1.974-0.637-3.79-1.146-3.79-2.388v-0.064
		c0-0.956,0.86-1.656,2.357-1.656c1.4,0,3.12,0.606,4.744,1.593l1.527-2.739c-1.782-1.178-4.075-1.91-6.176-1.91
		c-3.344,0-5.986,1.942-5.986,5.126v0.063C89.812,13.906,91.584,15.071,93.562,15.794z M128.082,8.947
		c-1.305-1.56-3.057-2.865-5.89-2.865c-3.31,0-6.472,2.098-7.376,5.741c1.385-0.072,2.774-0.113,4.164-0.128
		c0.794-1.472,2.372-2.365,4.23-2.365c1.95,0,3.676,1.001,4.47,2.604c1.425,0.09,2.844,0.205,4.254,0.341V6.432h-3.853
		L128.082,8.947L128.082,8.947z M145.881,6.082c-2.611,0-4.172,1.369-5.255,2.93V0h-3.853v12.82c1.301,0.169,2.59,0.354,3.867,0.553
		c0.146-2.379,1.658-3.789,3.774-3.789c2.292,0,3.599,1.497,3.599,4.108v0.999c1.307,0.263,2.591,0.535,3.852,0.816v-2.993
		C151.865,8.629,149.669,6.082,145.881,6.082z M106.368,3.853h4.14V0.191h-4.14V3.853z M161.163,6.432V1.814h-3.854v4.617h-2.133
		v3.312h2.133v7.06c1.321,0.335,2.607,0.674,3.854,1.017V9.743h4.521V6.432H161.163z M106.526,12.632
		c1.277-0.188,2.563-0.344,3.854-0.474V6.432h-3.854V12.632z M41.52,15.921c0,2.611-1.561,4.139-3.789,4.139
		c-2.294,0-3.599-1.465-3.599-4.076V6.432h-3.853V17.13c0,3.917,2.197,6.464,5.986,6.464c2.61,0,4.171-1.37,5.254-2.961v2.612h3.885
		V6.432H41.52V15.921z M21.587,23.245h3.854V0h-3.854V23.245z M54.062,10.221v-3.79h-3.854v16.813h3.854v-6.4
		c0-4.458,2.356-6.655,5.731-6.655h0.224V6.114C57.056,5.987,55.114,7.706,54.062,10.221z M69.244,6.209
		c-2.674,0-4.488,0.542-6.335,1.37l1.019,3.024c1.528-0.637,2.929-1.051,4.809-1.051c2.706,0,4.17,1.274,4.17,3.662v0.414
		c-1.306-0.414-2.643-0.7-4.521-0.7c-4.107,0-6.942,1.783-6.942,5.413v0.063c0,3.375,2.803,5.19,5.954,5.19
		c2.579,0,4.331-1.083,5.478-2.452v2.102h3.757v-9.967c0-2.197-0.573-3.98-1.814-5.189C73.638,6.878,71.761,6.209,69.244,6.209z
		 M72.97,17.194c0,2.133-1.941,3.598-4.489,3.598c-1.846,0-3.279-0.923-3.279-2.547v-0.063c0-1.751,1.465-2.802,3.948-2.802
		c1.528,0,2.833,0.286,3.82,0.668V17.194z"/>
	<g>
		<path fill="#F26522" d="M106.422,23.855h3.853v-9.387c-1.346,0.175-2.624,0.381-3.853,0.608V23.855z M128.043,14.558v0.063
			c0,2.738-2.262,4.617-4.938,4.617c-2.642,0-4.774-1.879-4.774-4.617v-0.063c0-0.257,0.023-0.503,0.059-0.744
			c-1.354,0.049-2.658,0.123-3.918,0.222c-0.011,0.184-0.025,0.364-0.025,0.553v0.064c0,4.936,3.693,7.865,7.641,7.865
			c2.771,0,4.522-1.274,5.924-3.088v1.305c0,3.375-1.879,5.159-5.318,5.159c-2.293,0-4.17-0.669-5.986-1.784l-1.432,2.897
			c2.165,1.306,4.744,2.006,7.513,2.006c3.026,0,5.383-0.731,6.911-2.261c1.401-1.4,2.133-3.502,2.133-6.336v-6.253
			c-1.31-0.106-2.595-0.195-3.84-0.26C128.022,14.116,128.043,14.333,128.043,14.558z M97.072,17.572
			c0.975,0.389,1.647,0.866,1.647,1.667v0.063c0,1.114-0.956,1.815-2.612,1.815c-1.34,0-2.815-0.431-4.275-1.267
			c-1.054,0.545-1.995,1.092-2.833,1.627l-0.12,0.181c2.103,1.656,4.746,2.515,7.134,2.515c3.502,0,6.241-1.751,6.241-5.285v-0.063
			c0-1.089-0.364-1.928-0.938-2.595C99.788,16.645,98.378,17.098,97.072,17.572z M164.675,20.463
			c-0.495,0.156-1.001,0.239-1.548,0.239c-1.094,0-1.801-0.433-2.004-1.452c-1.328-0.336-2.63-0.648-3.918-0.949v0.905
			c0,3.694,2.006,4.936,4.841,4.936c0.906,0,1.655-0.124,2.321-0.345c-0.005-0.148-0.012-0.296-0.012-0.445
			C164.355,22.359,164.468,21.394,164.675,20.463z M136.67,23.855h3.852v-8.722c-1.314-0.186-2.594-0.345-3.852-0.491V23.855z
			 M147.91,23.855h3.852v-6.757c-1.31-0.27-2.59-0.516-3.852-0.75V23.855z"/>
	</g>
</g>
</svg>
