<?xml version="1.0" encoding="utf-8"?>
<!-- Generator: Adobe Illustrator 16.0.0, SVG Export Plug-In . SVG Version: 6.00 Build 0)  -->
<!DOCTYPE svg PUBLIC "-//W3C//DTD SVG 1.1//EN" "http://www.w3.org/Graphics/SVG/1.1/DTD/svg11.dtd">
<svg version="1.1" id="Layer_1" xmlns="http://www.w3.org/2000/svg" xmlns:xlink="http://www.w3.org/1999/xlink" x="0px" y="0px"
	 width="846.562px" height="199.496px" viewBox="0 0 846.562 199.496" enable-background="new 0 0 846.562 199.496"
	 xml:space="preserve">
<rect x="-0.202" y="0.139" fill="#0093FF" width="846.37" height="199.896"/>
<path fill="#80C100" d="M502.635,58.8l-2.639-7.975l-6.549,3.859c0.386-2.563,0.861-5.122,1.441-7.66h-8.4l1.559,7.291
	c-2.194-1.129-4.344-2.328-6.461-3.619l-2.683,7.96l7.39,0.832c-1.777,1.83-3.611,3.591-5.529,5.292l6.823,4.9l3.091-7.115
	c1.163,2.315,2.24,4.663,3.229,7.07l6.875-4.829l-5.445-5.025C497.756,59.369,500.18,59.039,502.635,58.8z"/>
<g>
	<g>
		<path fill="#FFFFFF" d="M582.797,118.08c0,1.891-1.558,3.561-3.561,3.561h-4.116c-1.892,0-3.449-1.559-3.449-3.561l-0.111-9.568
			h22.14c2.225,0,4.228-1.891,4.228-4.004V91.936c0-9.791-6.342-19.58-16.91-19.58h-7.231c-10.681,0-17.021,8.566-17.021,18.246
			v26.699c0,10.568,7.565,18.246,19.135,18.246h3.115c11.236,0,19.136-7.789,19.136-18.357h-15.353V118.08z M571.56,89.377
			c0-1.891,1.558-3.227,3.561-3.227h4.784c2.002,0,3.337,1.336,3.337,3.227l0.111,6.898H571.56V89.377z"/>
		<g>
			<polygon fill="#FFFFFF" points="351.068,119.082 351.068,100.057 371.205,100.057 371.205,85.26 351.068,85.26 351.068,69.574 
				375.767,69.574 375.767,54.666 334.381,54.666 334.381,134.434 376.768,134.434 376.768,119.082 			"/>
		</g>
		<path fill="#FFFFFF" d="M475.41,87.568V73.502h-2.32c-0.646-0.031-1.334,0.072-2.016,0.299c-2.002,0.557-4.115,2.227-5.562,4.34
			c-4.227-4.006-8.121-5.785-12.793-5.785h-3.672c-9.9,0-18.023,7.564-18.023,17.133v14.018c0,5.674,2.781,10.457,7.121,13.572
			c-3.895,2.225-6.564,3.783-6.564,9.012c0,3.338,2.004,5.562,4.562,7.453l-0.668,0.445c-3.338,1.781-5.117,4.562-5.117,8.455
			c0,5.785,6.451,9.902,14.574,9.902h14.24c11.236,0,18.244-5.674,18.244-14.463c0-9.234-6.564-13.572-19.357-13.572h-10.791
			c-1.002,0-1.893-1.002-1.893-1.559c0-0.889,1.113-1.891,1.893-1.891h5.451c9.9,0,17.912-7.787,17.912-17.355V91.045
			c0-1.223-0.557-2.447-0.557-3.559c0-0.111,0.111,0,0.223,0c0.709,0.055,1.447,0.102,2.154,0.082H475.41z M446.377,90.156
			c0-2.004,1.779-3.672,4.006-3.672h1.223c2.225,0,4.006,1.668,4.006,3.672l-0.111,14.24c0,2.002-1.67,3.67-3.895,3.67h-1.223
			c-2.227,0-4.006-1.668-4.006-3.67V90.156z M459.393,140.887h-10.346c-2.225,0-3.895-1.891-3.895-3.227
			c0-1.113,1.447-2.67,3.895-2.67h8.121c5.229,0,5.785,2.447,5.785,2.893C462.953,138.885,461.619,140.887,459.393,140.887z"/>
		<g>
			<rect x="483.518" y="72.801" fill="#FFFFFF" width="15.352" height="61.633"/>
		</g>
		<g>
			<path fill="#FFFFFF" d="M412.198,72.355c-7.453,0-11.014,3.561-12.905,5.34v0.111v-0.111v-4.227h-15.464v60.965h15.464V90.379
				c0-2.449,10.124-8.455,10.124-1.002v45.057h15.353V84.816C424.77,77.695,419.763,72.355,412.198,72.355z"/>
		</g>
		<g>
			<path fill="#FFFFFF" d="M536.235,72.355c-7.453,0-11.014,3.561-12.905,5.34v0.111v-0.111v-4.227h-15.464v60.965h15.464V90.379
				c0-2.449,10.124-8.455,10.124-1.002v45.057h15.354V84.816C548.808,77.695,543.801,72.355,536.235,72.355z"/>
		</g>
	</g>
</g>
<path fill="#FFFFFF" d="M168.129,72.355h-8.232c-8.9,0-16.466,6.453-16.466,15.131v2.002h15.02V87.93
	c0-1.779,1.669-3.336,3.56-3.336h4.339c1.78,0,3.338,1.557,3.338,3.336v4.229c0,2.781-27.034,8.678-27.034,25.365v2.113
	c0,9.791,6.452,15.91,16.465,15.91c3.672,0,6.676-1.781,8.789-3.338c0.445-0.334,2.559-2.002,2.781-2.447v4.672h13.906V87.486
	C184.594,78.809,177.141,72.355,168.129,72.355z M169.687,115.299c0,3.004-4.45,5.674-8.011,5.674c-2.781,0-3.337-1.336-3.337-3.449
	c0-6.119,6.563-8.789,11.348-11.125V115.299z"/>
<g>
	<path fill="#FFFFFF" d="M221.404,88.121c0-4.643,0-15.654,0-15.654h-1.814c-3.295,0-6.427,1.521-8.896,3.625
		c-0.799,0.682-1.554,1.418-2.296,2.16l-0.223,0.223v-5.006h-15.687v60.965h15.687c0,0,0-40.658,0-40.719
		c0-1.344,0.454-2.711,1.316-3.746c0.997-1.195,2.496-1.848,4.063-1.848H221.404z"/>
</g>
<path fill="#FFFFFF" d="M247.969,72.355h-3.226c-10.792,0-19.58,7.898-19.58,18.246v26.254c0,10.348,8.788,18.691,19.58,18.691
	h3.226c10.792,0,19.581-8.344,19.581-18.691v-2.113h-15.353v0.445c0,3.783-2.336,6.23-5.34,6.23c-3.115,0-5.452-2.447-5.452-6.23
	V92.158c0-3.783,2.782-6.453,5.452-6.453s5.451,2.67,5.451,6.453h15.241v-1.557C267.55,80.254,258.761,72.355,247.969,72.355z"/>
<path fill="#FFFFFF" d="M302.475,71.688h-2.002c-5.117,0-8.789,2.559-12.238,5.785V53.555h-15.574v80.879h15.574V91.713
	c0-5.117,9.68-8.566,9.68-2.002v44.723h15.241v-52.51C313.156,76.25,308.26,71.688,302.475,71.688z"/>
<g>
	<path fill="#FFFFFF" d="M86.592,71.799C83.365,61.564,75.467,53.555,63.34,53.555c-11.236,0-22.139,7.119-22.139,20.58
		c0,18.691,31.484,27.924,31.484,39.605c0,4.34-2.67,7.121-7.565,7.121c-1.009,0-2.072-0.152-3.032-0.459
		c-1.041-0.334-2.069-0.91-2.891-1.629c-0.773-0.678-1.432-1.436-2.017-2.244c-1.184-1.637-2.866-4.176-4.729-9.182l-12.919,6.949
		c0.445,1.447,1.112,3.561,2.003,5.785c4.228,9.902,11.903,15.688,23.585,15.688c13.795,0,24.142-8.344,24.142-22.029
		c0-19.803-32.485-30.594-32.485-39.605c0-3.67,3.115-7.119,6.563-7.119c5.118,0,8.52,5.279,10.077,9.062L86.592,71.799z"/>
</g>
<path fill="#FFFFFF" d="M207.413,72.467"/>
<path fill="#FFFFFF" d="M121.365,118.08c0,1.891-1.558,3.561-3.561,3.561h-4.116c-1.892,0-3.449-1.559-3.449-3.561l-0.111-9.568
	h22.14c2.225,0,4.228-1.891,4.228-4.004V91.936c0-9.791-6.342-19.58-16.91-19.58h-7.231c-10.681,0-17.021,8.566-17.021,18.246
	v26.699c0,10.568,7.565,18.246,19.135,18.246h3.115c11.236,0,19.136-7.789,19.136-18.357h-15.353V118.08z M110.128,89.377
	c0-1.891,1.558-3.227,3.561-3.227h4.784c2.002,0,3.337,1.336,3.337,3.227l0.111,6.898h-11.793V89.377z"/>
<path fill="#80C100" d="M690.782,72.355h-8.232c-8.9,0-16.465,6.453-16.465,15.131v2.002h15.02V87.93
	c0-1.779,1.668-3.336,3.559-3.336h4.34c1.779,0,3.338,1.557,3.338,3.336v4.229c0,2.781-27.035,8.678-27.035,25.365v2.113
	c0,9.791,6.453,15.91,16.465,15.91c3.672,0,6.676-1.781,8.789-3.338c0.445-0.334,2.559-2.002,2.781-2.447v4.672h13.906V87.486
	C707.247,78.809,699.794,72.355,690.782,72.355z M692.341,115.299c0,3.004-4.451,5.674-8.012,5.674
	c-2.781,0-3.336-1.336-3.336-3.449c0-6.119,6.562-8.789,11.348-11.125V115.299z"/>
<g>
	<polyline fill="#80C100" points="634.811,119.303 634.811,54.666 617.9,54.666 617.9,134.434 659.397,134.434 659.397,119.303 
		634.811,119.303 	"/>
</g>
<g>
	<path fill="#80C100" d="M792.497,53.555v22.473c-0.334-0.445-0.668-0.891-1-1.336c-2.338-2.559-5.453-3.004-8.9-3.004h-3.004
		c-7.121,0-13.018,5.674-13.018,12.572v38.27c0,6.898,5.785,13.018,13.018,13.018h3.004c5.562,0,7.453-1.67,10.012-4.229v3.115
		h15.465V53.555H792.497z M792.386,118.191c0,0.445-1.779,3.227-3.338,3.227h-3.559c-1.893,0-3.449-1.447-3.449-3.227V89.154
		c0-1.779,1.445-3.115,3.449-3.115h3.559c1.67,0,3.449,2.559,3.449,3.115L792.386,118.191z"/>
</g>
<g>
	<path fill="#80C100" d="M744.823,72.355c-7.453,0-11.014,3.561-12.904,5.34v0.111v-0.111v-4.227h-15.465v60.965h15.465V90.379
		c0-2.449,10.123-8.455,10.123-1.002v45.057h15.354V84.816C757.396,77.695,752.39,72.355,744.823,72.355z"/>
</g>
</svg>
