<svg width="152" height="43" viewBox="0 0 152 43" xmlns="http://www.w3.org/2000/svg" xmlns:sketch="http://www.bohemiancoding.com/sketch/ns"><title>Slice 1</title><g sketch:type="MSShapeGroup" fill="none" fill-rule="evenodd"><path d="M26.054.355c3.943 3.809 13.87 34.208 16.135 41.145v-41.145h-16.135M31.683 41.44c-2.268-7.065-10.87-37.087-15.444-41.027h-15.432v41.026h.333l14.938-40.007-12.483 40.007h.4l13.617-37.29-11.337 37.288h.534l12.337-34.028-10.114 33.996h.467l6.38-13.959h-1.534l6.202-16.777-4.668 16.776h1.401l-5.669 13.995h20.073" id="Shape" fill="#005699"/><path d="M66.1 27.962h-7.545c.001-.004.004-.013.004-.013.004-.013 3.517-11.003 3.517-11.003.049-.15.087-.229.115-.275.027.046.066.125.115.276.001.003 3.793 10.994 3.793 10.994 0-.002-.001-.002-.001-.001 0 .002.002.014.003.022zm27.916 0h-7.545c.001-.004.003-.014.003-.014.004-.012 3.517-11.003 3.517-11.003.049-.15.087-.229.115-.275.028.046.066.125.114.276.001.003 3.794 10.994 3.794 10.994-.001-.002-.001-.003-.001-.001 0 .003.002.015.003.023zm27.974 0h-7.545c.001-.004.003-.013.003-.013.004-.013 3.517-11.003 3.517-11.003.049-.15.087-.229.114-.275.028.046.066.125.115.276.001.003 3.793 10.994 3.793 10.994-.001-.002-.001-.002-.001-.001 0 .002.002.014.003.022zm11.943 12.922c-.387 0-.966-.041-1.536-.233-.881-.257-1.956-.979-3.315-4.405-1.736-4.41-5.413-14.202-7.61-20.054l-1.692-4.492c-.468-1.232-.664-1.591-1.059-1.591-.392 0-.579.366-1.061 1.718l-9.063 25.28c-.767 2.175-1.537 3.477-3.196 3.697 0 0-.094.007-.227.016-.233-.036-.479-.086-.725-.17-.881-.257-1.956-.979-3.315-4.405-1.738-4.417-5.42-14.221-7.62-20.079l-1.682-4.466c-.467-1.232-.664-1.591-1.059-1.591-.393 0-.579.366-1.062 1.718l-9.063 25.28c-.768 2.175-1.537 3.477-3.196 3.697 0 0-.094.007-.227.016-.233-.036-.479-.086-.725-.17-.881-.257-1.956-.979-3.315-4.405-1.736-4.41-5.413-14.202-7.61-20.054l-1.692-4.492c-.468-1.232-.664-1.591-1.059-1.591-.392 0-.579.366-1.061 1.718l-9.064 25.28c-.768 2.175-1.537 3.477-3.196 3.697-.001 0-1.133.08-1.133.08-.331 0-.553.178-.553.442 0 .524.644.524.953.524l3.601-.091.91-.03 1.013.043 2.101.079c.656 0 .793-.285.793-.524 0-.165-.077-.442-.594-.442h-.399c-.512 0-1.323-.267-1.323-.983s.194-1.66.547-2.66c.001-.004 2.397-7.208 2.397-7.208.069-.176.145-.191.215-.191h8.584c.105 0 .128.017.186.135 0 .003 3.705 9.995 3.705 9.995.058.157.087.303.087.43 0 .096-.017.182-.05.253-.052.112-.126.148-.156.158-.357.091-.412.335-.412.473 0 .413.451.436 1.198.474l.183.009c1.499.044 3.313.072 5.2.079.059.001.114.002.16.002l.056-.001c.287.001.574.001.863.001.168 0 .314-.012.44-.035l2.243-.057.91-.03 1.013.043 2.101.079c.656 0 .793-.285.793-.524 0-.165-.077-.442-.593-.442h-.399c-.511 0-1.323-.267-1.323-.983s.194-1.66.547-2.66c.001-.004 2.397-7.208 2.397-7.208.069-.176.144-.191.215-.191h8.584c.105 0 .127.017.185.134 0 .003 3.706 9.996 3.706 9.996.057.157.087.303.087.43 0 .096-.017.182-.05.253-.052.112-.126.148-.156.158-.357.091-.412.335-.412.473 0 .413.45.436 1.199.474l.183.009c1.499.044 3.313.072 5.2.079.058.001.113.002.16.002l.055-.001c.287.001.574.001.863.001.168 0 .314-.012.44-.035l2.243-.057.91-.03 1.013.043 2.101.079c.656 0 .794-.285.794-.524 0-.165-.077-.442-.594-.442h-.399c-.512 0-1.323-.267-1.323-.983s.194-1.66.547-2.66c.001-.004 2.397-7.208 2.397-7.208.069-.176.144-.191.215-.191h8.584c.105 0 .128.017.186.135 0 .003 3.705 9.995 3.705 9.995.057.157.087.303.087.43 0 .096-.016.182-.05.253-.053.112-.127.148-.156.158-.357.091-.413.335-.413.473 0 .413.451.436 1.199.474l.183.009c1.782.053 4.01.082 6.279.082.658 0 .992-.176.992-.524 0-.297-.199-.446-.594-.446z" id="Shape" fill="#005699"/><path d="M145.387 24.019l-1.12-.895c-3.861-3.216-4.806-4.527-4.806-6.676 0-2.703 1.899-4.519 4.725-4.519 3.364 0 4.498 1.435 4.828 2.052.219.409.458 1.475.497 1.955.037.305.087.71.514.71.475 0 .475-.737.475-1.133 0-2.167.098-3.456.141-4.006l.02-.304c0-.428-.318-.483-.595-.483-.285 0-.573-.031-1.36-.199-1.147-.28-2.343-.411-3.76-.411-5.148 0-8.474 2.951-8.474 7.518 0 2.748.897 5.327 5.27 8.978l1.8 1.504c3.555 2.984 4.529 4.524 4.529 7.167 0 2.589-1.897 5.211-5.525 5.211-1.483 0-5.01-.389-5.728-3.989-.116-.551-.116-1.101-.116-1.465 0-.242 0-.645-.475-.645-.44 0-.488.54-.514.83 0 .006-.034.49-.034.49-.063.82-.166 2.194-.166 3.838 0 1.08.029 1.377.707 1.722l.002.001c1.517.752 3.297 1.118 5.444 1.118 2.416 0 4.542-.603 6.15-1.744 2.568-1.854 3.482-4.786 3.482-6.912 0-3.15-.967-5.749-5.913-9.712" fill="#E03A3E"/></g></svg>