<svg width="92" height="20" viewBox="0 0 92 20" xmlns="http://www.w3.org/2000/svg" xmlns:sketch="http://www.bohemiancoding.com/sketch/ns"><title>science-logo</title><g sketch:type="MSShapeGroup" fill="#fff" fill-rule="evenodd"><path d="M12.637 1.239v5.091h-1.351l-.903-3.189c-.783-.503-2.251-1.454-4.097-1.454-1.596 0-2.941.951-2.941 2.463 0 2.293 2.347 3.079 4.693 4.199 2.566 1.23 6.194 2.404 6.194 6.043 0 3.303-3.535 5.597-7.29 5.597-3.911 0-4.923-.504-5.925-.729l-.743-4.823 1.384-.004 1.343 3.036c.655.393 1.659 1.317 3.473 1.317 2.128 0 3.723-1.4 3.723-3.164 0-2.153-1.972-2.77-4.913-4.169-2.066-.977-5.224-2.154-5.224-5.624 0-2.799 2.534-5.233 6.319-5.233 3.473 0 5.537.476 6.257.643"/><path d="M22.733 6.334c-2.255 0-3.249 2.099-3.279 5.059-.03 2.53.631 4.467 3.641 4.736 2.195.216 3.821-.647 4.452-.969l.601.861c-.542.43-2.707 1.749-6.078 1.749-4.603 0-7.129-2.289-7.129-6.377 0-3.714 3.579-6 7.251-6 3.277 0 5.142.484 5.684.673l-.824 3.469-1.281.029-.27-2.044c-.3-.216-1.176-1.184-2.769-1.184"/><path d="M34.223 2.199c0 1.027-.878 1.821-1.989 1.821-1.11 0-1.988-.794-1.988-1.821 0-1 .878-1.821 1.988-1.821 1.111 0 1.989.821 1.989 1.821"/><path d="M42.843 6.334c-1.412 0-2.136 1.667-2.197 3.497h4.302c-.089-1.669-.512-3.497-2.106-3.497zm1.024 9.903c2.076.267 4.363-.889 4.933-1.211l.633.889c-.783.564-2.769 1.856-6.558 1.856-3.792 0-6.83-2.503-6.83-6.189 0-3.419 2.828-6.189 6.769-6.189 3.969 0 6.347 1.967 6.347 5.629h-8.603c.03 2.826.631 4.893 3.309 5.216z"/><path d="M56.586 16.936v.564h-6.738v-.564l1.246-.431v-9.571l-1.246-.266v-.59l5.369-.746.03 1.864c.689-.511 2.286-1.803 4.964-1.803 2.497 0 3.821 1.317 3.821 3.47v7.641l1.213.431v.564h-6.528v-.564l1.1-.431v-7.291c0-1.023-.269-2.071-1.864-2.071-1.264 0-2.257.893-2.648 1.136v8.227l1.281.431"/><path d="M72.89 6.334c-2.255 0-3.249 2.099-3.278 5.059-.032 2.53.631 4.467 3.64 4.736 2.195.216 3.821-.647 4.452-.969l.601.861c-.54.43-2.707 1.749-6.075 1.749-4.604 0-7.133-2.289-7.133-6.377 0-3.714 3.581-6 7.252-6 3.278 0 5.145.484 5.687.673l-.827 3.469-1.279.029-.272-2.044c-.3-.216-1.173-1.184-2.769-1.184"/><path d="M85.094 6.334c-1.415 0-2.136 1.667-2.197 3.497h4.302c-.089-1.669-.51-3.497-2.106-3.497zm1.022 9.903c2.076.267 4.361-.889 4.935-1.211l.633.889c-.783.564-2.769 1.856-6.559 1.856-3.792 0-6.83-2.503-6.83-6.189 0-3.419 2.828-6.189 6.769-6.189 3.97 0 6.347 1.967 6.347 5.629h-8.602c.029 2.826.631 4.893 3.308 5.216z"/><path d="M36.051 16.881v.566h-7.228v-.566l1.494-.431v-9.547l-1.245-.237v-.537l5.455-.791v11.113l1.524.431"/></g></svg>