<svg width="167" height="93" viewBox="0 0 167 93" xmlns="http://www.w3.org/2000/svg" xmlns:sketch="http://www.bohemiancoding.com/sketch/ns"><title>Slice 1</title><g sketch:type="MSShapeGroup" fill="none" fill-rule="evenodd"><path d="M.295 56.202v36.286h166.285v-36.286h-166.285z" id="Rectangle" fill="#fff"/><path d="M.295.535v55.666h166.083v-55.666h-166.083z" fill="#E13A3E"/><path d="M28.25 12.891v8.659h-2.234l-1.493-5.424c-1.292-.856-3.72-2.474-6.77-2.474-2.638 0-4.861 1.619-4.861 4.187 0 3.9 3.878 5.233 7.756 7.138 4.241 2.093 10.239 4.093 10.239 10.278 0 5.614-5.843 9.513-12.048 9.513-6.465 0-8.137-.856-9.791-1.237l-1.229-8.203 2.287-.005 2.217 5.162c1.085.667 2.741 2.238 5.741 2.238 3.515 0 6.152-2.379 6.152-5.377 0-3.663-3.258-4.711-8.118-7.09-3.412-1.664-8.633-3.665-8.633-9.565 0-4.757 4.188-8.898 10.443-8.898 5.739.002 9.153.813 10.341 1.099M44.934 21.555c-3.73 0-5.37 3.568-5.419 8.6-.05 4.299 1.042 7.592 6.017 8.051 3.628.366 6.314-1.099 7.358-1.644l.994 1.461c-.896.736-4.475 2.977-10.043 2.977-7.609 0-11.784-3.891-11.784-10.842 0-6.314 5.917-10.204 11.982-10.204 5.42 0 8.503.823 9.399 1.143l-1.362 5.903-2.119.045-.448-3.477c-.497-.366-1.939-2.012-4.575-2.012M63.922 14.52c0 1.746-1.45 3.098-3.283 3.098-1.836 0-3.287-1.351-3.287-3.098 0-1.701 1.451-3.096 3.287-3.096 1.833 0 3.283 1.395 3.283 3.096" id="Shape" fill="#fff"/><path d="M79.859 38.392c3.432.457 7.212-1.512 8.159-2.059l1.043 1.509c-1.289.961-4.575 3.157-10.842 3.157-6.263 0-11.285-4.257-11.285-10.525 0-5.811 4.674-10.523 11.185-10.523 6.566 0 10.496 3.349 10.496 9.571h-14.224c.051 4.805 1.044 8.32 5.469 8.869zm-1.688-16.837c-2.335 0-3.532 2.836-3.631 5.946h7.11c-.149-2.837-.844-5.946-3.479-5.946zM100.89 39.579v.962h-11.139v-.962l2.058-.731v-16.278l-2.058-.449v-1.007l8.873-1.266.048 3.169c1.14-.868 3.779-3.064 8.205-3.064 4.126 0 6.312 2.242 6.312 5.903v12.994l2.01.731v.962h-10.792v-.962l1.821-.731v-12.398c0-1.738-.444-3.522-3.078-3.522-2.091 0-3.732 1.516-4.378 1.932v13.99l2.12.73M127.832 21.555c-3.73 0-5.369 3.568-5.417 8.6-.052 4.299 1.039 7.592 6.012 8.051 3.632.366 6.314-1.099 7.359-1.644l.991 1.461c-.891.736-4.473 2.977-10.043 2.977-7.604 0-11.782-3.891-11.782-10.842 0-6.314 5.918-10.204 11.983-10.204 5.42 0 8.499.823 9.399 1.143l-1.364 5.903-2.119.045-.448-3.477c-.495-.366-1.936-2.012-4.57-2.012" id="Shape" fill="#fff"/><path d="M149.688 38.392c3.431.457 7.209-1.512 8.156-2.059l1.041 1.509c-1.287.961-4.574 3.157-10.838 3.157-6.26 0-11.288-4.257-11.288-10.525 0-5.811 4.677-10.523 11.189-10.523 6.566 0 10.494 3.349 10.494 9.571h-14.225c.052 4.805 1.047 8.32 5.472 8.869zm-1.688-16.837c-2.339 0-3.533 2.836-3.633 5.946h7.114c-.149-2.837-.844-5.946-3.481-5.946zM66.945 39.488v.959h-11.943v-.959l2.466-.734v-16.234l-2.058-.401v-.915l9.017-1.345v18.895l2.517.734" id="Shape" fill="#fff"/><path d="M96.394 63.616c1.955 1.897 6.897 17.046 8.022 20.505v-20.505h-8.022M99.215 84.122c-1.128-3.528-5.404-18.508-7.678-20.477h-7.672v20.475h.164l7.427-19.961-6.205 19.961h.202l6.767-18.608-5.636 18.608h.264l6.137-16.979-5.03 16.963h.234l3.169-6.966h-.76l3.084-8.369-2.324 8.369h.694l-2.816 6.985h9.98" id="Shape" fill="#005699"/><path d="M149.986 83.798c-.194 0-.482-.019-.763-.115-.44-.126-.975-.489-1.651-2.197-.868-2.214-2.707-7.129-3.809-10.062l-.813-2.163c-.231-.616-.33-.793-.526-.793-.194 0-.288.179-.525.857l-4.504 12.594c-.381 1.084-.763 1.732-1.59 1.838 0 0-.043.004-.11.009-.12-.017-.241-.04-.365-.081-.435-.126-.967-.489-1.646-2.197-.852-2.168-2.656-6.992-3.734-9.875l-.885-2.351c-.234-.616-.332-.793-.526-.793-.197 0-.291.179-.527.857l-4.504 12.594c-.381 1.082-.765 1.732-1.586 1.838 0 0-.048.004-.113.009-.117-.017-.237-.04-.36-.081-.436-.126-.971-.489-1.646-2.197-.872-2.227-2.721-7.158-3.827-10.107l-.789-2.121c-.237-.616-.335-.793-.527-.793-.199 0-.288.179-.53.857l-4.501 12.594c-.381 1.082-.766 1.732-1.59 1.838l-.562.042c-.165 0-.275.089-.275.221 0 .261.32.261.473.261l1.788-.046.453-.015.504.022 1.045.04c.324 0 .392-.142.392-.261 0-.082-.037-.221-.293-.221h-.2c-.254 0-.657-.134-.657-.488s.101-.834.269-1.327c.002-.002 1.196-3.59 1.196-3.59.035-.086.072-.095.105-.095h4.263c.056 0 .066.009.091.066 0 .002 1.843 4.98 1.843 4.98.029.078.043.152.043.215 0 .049-.006.091-.024.124-.024.056-.062.072-.076.079-.179.044-.203.169-.203.234 0 .209.222.219.595.239l.089.006c.746.022 1.651.036 2.584.038.029.002.056.002.08.002h.454c.085 0 .147-.006.204-.017l1.128-.029.455-.015.5.022 1.045.04c.329 0 .396-.142.396-.261 0-.082-.039-.221-.295-.221h-.2c-.264 0-.657-.13-.657-.488 0-.352.101-.833.269-1.327 0-.002 1.192-3.59 1.192-3.59.037-.086.076-.095.11-.095h4.264c.054 0 .064.009.091.066 0 .002 1.841 4.98 1.841 4.98.029.076.043.152.043.215 0 .049-.011.091-.024.126-.024.054-.063.07-.077.077-.178.044-.206.169-.206.234 0 .209.225.219.601.239l.087.006c.746.022 1.646.036 2.58.038.029.002.058.002.08.002h.459c.08 0 .153-.006.219-.017l1.114-.029.452-.015.503.022 1.043.04c.327 0 .394-.142.394-.261 0-.082-.035-.221-.295-.221h-.199c-.254 0-.656-.134-.656-.488s.1-.834.274-1.327c0-.002 1.189-3.59 1.189-3.59.033-.086.074-.095.111-.095h4.26c.048 0 .06.006.091.066 0 .002 1.84 4.98 1.84 4.98.031.078.045.152.045.215 0 .049-.008.091-.022.124-.022.041-.048.068-.076.079-.184.044-.208.169-.208.234 0 .209.227.219.597.239l.091.006c.882.025 1.99.04 3.115.04.409 0 .498-.142.498-.261-.001-.148-.1-.221-.296-.221zm-5.942-6.431h-3.751v-.006c.004-.004 1.748-5.479 1.748-5.479.024-.073.043-.113.058-.137.015.023.033.064.058.137 0 .002 1.883 5.477 1.883 5.477 0 .001.004.005.004.009zm-13.886 0h-3.751l.004-.004c0-.006 1.746-5.481 1.746-5.481.024-.076.043-.113.054-.137.019.023.037.062.06.137 0 .002 1.887 5.477 1.887 5.477v.009zm-13.883 0h-3.755c.004-.002.004-.006.004-.006 0-.004 1.746-5.479 1.746-5.479.026-.076.043-.113.058-.137.015.023.033.062.056.137.004.002 1.891 5.477 1.891 5.477 0-.002 0-.002 0 0v.009z" id="Shape" fill="#005699"/><path d="M155.658 75.403c0-.002-.555-.443-.555-.443-1.915-1.606-2.385-2.264-2.385-3.331 0-1.348.945-2.255 2.344-2.255 1.673 0 2.233.714 2.395 1.022.108.203.228.736.245.976.019.152.043.355.256.355.232 0 .232-.355.232-.564 0-1.084.052-1.728.072-2.001l.008-.152c0-.239-.205-.239-.292-.239-.161 0-.319-.025-.677-.102-.56-.139-1.159-.204-1.864-.204-2.551 0-4.203 1.472-4.203 3.749 0 1.371.446 2.657 2.614 4.479l.894.75c1.761 1.491 2.246 2.254 2.246 3.574 0 1.292-.944 2.6-2.741 2.6-.736 0-2.483-.197-2.84-1.991-.06-.273-.06-.548-.06-.734 0-.108 0-.319-.236-.319-.217 0-.242.27-.256.414 0 .002-.019.259-.019.259-.029.408-.08 1.088-.08 1.899 0 .538.015.685.351.858.755.376 1.638.56 2.702.56 1.197 0 2.253-.299 3.052-.869 1.271-.926 1.724-2.389 1.724-3.449 0-1.569-.476-2.868-2.927-4.843" id="Shape" fill="#E13A3E"/><path d="M.398 56.498h165.98-165.98zm166.182 3.118v32.872h-166.182v-92.091h166.182v59.219z" stroke="#005699" stroke-width=".732"/></g></svg>