<?xml version="1.0" encoding="utf-8"?>
<!-- Generator: Adobe Illustrator 15.0.2, SVG Export Plug-In  -->
<!DOCTYPE svg PUBLIC "-//W3C//DTD SVG 1.1//EN" "http://www.w3.org/Graphics/SVG/1.1/DTD/svg11.dtd" [
	<!ENTITY ns_flows "http://ns.adobe.com/Flows/1.0/">
]>
<svg version="1.1"
	 xmlns="http://www.w3.org/2000/svg" xmlns:xlink="http://www.w3.org/1999/xlink" xmlns:a="http://ns.adobe.com/AdobeSVGViewerExtensions/3.0/"
	 x="0px" y="0px" width="280px" height="70px" viewBox="0 -0.3 280 70" overflow="visible" enable-background="new 0 -0.3 280 70"
	 xml:space="preserve">
<defs>
</defs>
<linearGradient id="SVGID_1_" gradientUnits="userSpaceOnUse" x1="137.3794" y1="67.5791" x2="137.3794" y2="0.1423">
	<stop  offset="0" style="stop-color:#204072"/>
	<stop  offset="1" style="stop-color:#21315F"/>
</linearGradient>
<path fill="url(#SVGID_1_)" d="M167.349,19.666c-4.351,0-7.842,1.171-11.465,2.953C155.918,12.346,156.05,3.389,156.293,0
	L135.18,4.078v1.901l2.059,0.265c2.94,0.403,4.075,2.125,4.421,6.056c0.662,7.53,0.566,47.953,0,54.43
	c5.683,1.273,11.838,2.257,17.999,2.257c16.755,0,26.837-10.353,26.837-26.738C186.496,29.106,178.312,19.666,167.349,19.666z
	 M159.992,65.641c-1.197,0-2.744-0.193-3.602-0.348c-0.333-4.539-0.537-23.243-0.515-39.582c1.938-0.655,3.237-0.809,4.929-0.809
	c6.936,0,10.831,8.006,10.849,18.115C171.677,55.884,166.866,65.641,159.992,65.641z M55.822,20.16l-3.292,0.915
	c-2.875-9.6-7.448-15.031-15.999-15.031H25.568c-0.509,6.119-0.704,16.312-0.655,26.923l7.378-0.235
	c4.904-0.162,6.959-3.798,8.144-9.19h2.751v22.465h-2.751c-1.184-5.392-3.239-9.024-8.144-9.191l-7.357-0.234
	c0.076,8.063,0.292,14.923,0.633,18.994c0.499,5.978,2.125,8.6,6.363,9.218l3.744,0.399v2.672H0v-2.672l2.952-0.399
	c4.231-0.618,5.862-3.24,6.36-9.218c0.818-9.859,0.949-30.341,0-41.792c-0.498-5.985-2.128-8.603-6.36-9.221L0,4.163V1.489h55.522
	L55.822,20.16z M73.568,19.133c15.777,0,23.619,10.696,23.619,24.804c0,13.775-8.851,25.058-24.632,25.058
	c-15.784,0-23.628-10.696-23.628-24.803C48.927,30.417,57.777,19.133,73.568,19.133z M72.745,22.189
	c-6.977,0-8.93,9.433-8.93,21.874c0,12.105,3.088,21.875,9.56,21.875c6.973,0,8.927-9.435,8.927-21.875
	C82.302,31.962,79.214,22.189,72.745,22.189z M190.369,44.502c-0.016-13.056,8.226-25.341,24.498-25.341
	c13.238,0,19.552,9.814,19.625,22.65h-29.529c-0.327,11.647,5.57,20.198,16.857,20.198c4.966,0,7.645-1.23,10.642-3.524l1.385,1.663
	c-3.271,4.541-10.105,8.847-19.181,8.847C200.445,68.995,190.391,58.918,190.369,44.502z M205.077,38.491l14.801-0.318
	c0.072-6.551-0.976-15.909-6.3-15.909C208.213,22.264,205.202,31.121,205.077,38.491z M272.431,33.821l-2.415,0.631
	c-2.57-8.336-6.483-11.89-12.207-11.89c-3.814,0-6.564,2.858-6.564,7.02c0,4.125,3.092,6.301,12.007,9.755
	c8.246,3.193,11.507,6.86,11.507,13.556c0,9.97-7.636,16.108-20.216,16.108c-6.032,0-12.742-1.348-16.674-2.935l-0.422-13.805
	l2.415-0.633c3.458,9.654,7.957,13.165,13.907,13.165c5.049,0,7.866-3.589,7.866-7.421c0-3.72-2.12-5.967-10.174-8.842
	c-7.478-2.671-12.895-5.956-12.895-14.319c0-8.123,7.194-15.079,19.07-15.079c5.519,0,10.755,0.966,14.262,2.573L272.431,33.821z
	 M133.218,33.44c-6.396-4.287-13.274-2.412-14.693-0.083c-0.493,7.723-0.373,19.563,0.151,25.514
	c0.344,3.932,1.477,5.653,4.426,6.061l3.815,0.262v2.672H97.618v-2.672l2.054-0.262c2.944-0.407,4.078-2.129,4.425-6.061
	c0.574-6.48,0.658-19.943,0-27.47c-0.347-3.936-1.481-5.659-4.425-6.064l-2.054-0.266v-1.901l21.041-4.075l-0.238,11.003
	c4.918-11.311,14.625-12.812,19.952-9.629L133.218,33.44z"/>
</svg>
